<?xml version="1.0" standalone="no"?>
<!DOCTYPE svg PUBLIC "-//W3C//DTD SVG 20010904//EN"
 "http://www.w3.org/TR/2001/REC-SVG-20010904/DTD/svg10.dtd">
<svg version="1.0" xmlns="http://www.w3.org/2000/svg"
 width="90.000000pt" height="90.000000pt" viewBox="0 0 90.000000 90.000000"
 preserveAspectRatio="xMidYMid meet">
<metadata>
Created by potrace 1.14, written by Peter Selinger 2001-2017
</metadata>
<g transform="translate(0.000000,90.000000) scale(0.100000,-0.100000)"
fill="#000000" stroke="none">
<path d="M0 450 l0 -450 450 0 450 0 0 450 0 450 -450 0 -450 0 0 -450z m850
285 l0 -115 -115 0 -115 0 0 115 0 115 115 0 115 0 0 -115z m-280 -5 l0 -110
-120 0 -120 0 0 110 0 110 120 0 120 0 0 -110z m-290 -280 l0 -120 -115 0
-115 0 0 120 0 120 115 0 115 0 0 -120z m550 0 l0 -120 -105 0 -105 0 0 120 0
120 105 0 105 0 0 -120z m-550 -285 l0 -115 -115 0 -115 0 0 115 0 115 115 0
115 0 0 -115z m290 0 l0 -115 -120 0 -120 0 0 115 0 115 120 0 120 0 0 -115z"/>
</g>
</svg>
